<svg xmlns="http://www.w3.org/2000/svg" viewBox="0 0 279.08 78.28"><defs><style>.cls-1{fill:#9c9b9b;}.cls-2{fill:#fff;}.cls-3,.cls-4{fill:#c20e1a;}.cls-4{stroke:#fff;stroke-miterlimit:10;stroke-width:2px;}</style></defs><title>2018-09-18-saida-marca-horizontal_branca-zaal</title><g id="Layer_2" data-name="Layer 2"><g id="Camada_1" data-name="Camada 1"><path class="cls-1" d="M134.43,60.75H132a.27.27,0,0,1-.27-.27v-.41a.27.27,0,0,1,.27-.27h5.92a.27.27,0,0,1,.26.27v.41a.27.27,0,0,1-.26.27h-2.43v8.58a.28.28,0,0,1-.27.27h-.53a.28.28,0,0,1-.27-.27Z"/><path class="cls-1" d="M141.11,60.08a.27.27,0,0,1,.27-.27h5.5a.27.27,0,0,1,.26.27v.41a.26.26,0,0,1-.26.26h-4.69v3.41h4a.27.27,0,0,1,.27.26v.41a.27.27,0,0,1-.27.27h-4v3.56h4.69a.27.27,0,0,1,.26.27v.41a.27.27,0,0,1-.26.27h-5.5a.27.27,0,0,1-.27-.27Z"/><path class="cls-1" d="M155.06,59.67a4.91,4.91,0,0,1,3.38,1.3.27.27,0,0,1,0,.39l-.38.38c-.11.14-.22.13-.36,0a4.23,4.23,0,0,0-2.67-1,4,4,0,0,0,0,8,4.06,4.06,0,0,0,2.67-1,.26.26,0,0,1,.33,0l.42.38a.27.27,0,0,1,0,.38,4.79,4.79,0,0,1-3.39,1.35,5,5,0,1,1,0-10.06"/><path class="cls-1" d="M162,59.92a.26.26,0,0,1,.27-.25h.35l6.3,7.85h0V60.08a.27.27,0,0,1,.27-.27h.49a.27.27,0,0,1,.27.27v9.4a.26.26,0,0,1-.27.25h-.25l-6.41-8h0v7.6a.27.27,0,0,1-.26.27h-.49a.28.28,0,0,1-.27-.27Z"/><path class="cls-1" d="M178.5,59.67a5,5,0,1,1-5,5,5,5,0,0,1,5-5m0,9.08a4.05,4.05,0,1,0-4-4,4.06,4.06,0,0,0,4,4"/><path class="cls-1" d="M187.06,60.08a.27.27,0,0,1,.27-.27h.54a.28.28,0,0,1,.27.27v8.58h4a.27.27,0,0,1,.26.27v.41a.26.26,0,0,1-.26.27h-4.83a.27.27,0,0,1-.27-.27Z"/><path class="cls-1" d="M199.47,59.67a5,5,0,1,1-5,5,5,5,0,0,1,5-5m0,9.08a4.05,4.05,0,1,0-4-4,4.06,4.06,0,0,0,4,4"/><path class="cls-1" d="M212.36,59.67a4.91,4.91,0,0,1,3.38,1.3.27.27,0,0,1,0,.39c-.12.13-.28.27-.39.39s-.21.13-.36,0a4.24,4.24,0,0,0-2.65-1.09,4,4,0,0,0,0,8,5.24,5.24,0,0,0,2.51-.59v-2h-1.6a.25.25,0,0,1-.27-.25v-.52a.26.26,0,0,1,.27-.26h2.42a.26.26,0,0,1,.25.26v3.2a.35.35,0,0,1-.11.22,6.89,6.89,0,0,1-3.45.92,5,5,0,1,1,0-10.06"/><rect class="cls-1" x="219.64" y="59.81" width="1.09" height="9.78" rx="0.27" ry="0.27"/><path class="cls-1" d="M223.64,69.23l4.24-9.4a.25.25,0,0,1,.24-.15h.14a.25.25,0,0,1,.24.15l4.22,9.4a.25.25,0,0,1-.24.36h-.56a.26.26,0,0,1-.24-.15l-1-2.31h-5l-1,2.31a.26.26,0,0,1-.24.15h-.56a.25.25,0,0,1-.24-.36m6.63-3c-.68-1.52-1.35-3.06-2-4.58h-.11l-2,4.58Z"/><path class="cls-2" d="M112.64,28.79H85.5a9.56,9.56,0,0,1,9.56-9.56h38.26a3.16,3.16,0,0,1,2.11.69,3.81,3.81,0,0,1,1.16,1.68,3.37,3.37,0,0,1,0,2.07,3.1,3.1,0,0,1-1.33,1.77l-13.05,9.09-13.05,9.09H135.3v0A9.35,9.35,0,0,1,125.95,53H88.77a3.2,3.2,0,0,1-2.07-.69,3.38,3.38,0,0,1-1.16-1.68,3.66,3.66,0,0,1,0-2.07,3.11,3.11,0,0,1,1.34-1.77Z"/><path class="cls-2" d="M182.31,42.66A10.34,10.34,0,0,1,172,53H155.26a16.56,16.56,0,0,1-6.63-1.34,16.85,16.85,0,0,1-9-9,17.14,17.14,0,0,1,0-13.27,16.85,16.85,0,0,1,9-9,16.6,16.6,0,0,1,6.63-1.33h26.62a16.6,16.6,0,0,1,6.63,1.33,16.85,16.85,0,0,1,9,9A16.61,16.61,0,0,1,198.86,36V53a10.34,10.34,0,0,1-10.34-10.34V36a6.62,6.62,0,0,0-6.63-6.63H155.26a6.64,6.64,0,0,0-4.7,11.33,6.39,6.39,0,0,0,4.7,1.94Z"/><path class="cls-2" d="M246,42.66A10.34,10.34,0,0,1,235.65,53H218.94a16.56,16.56,0,0,1-6.63-1.34,16.85,16.85,0,0,1-9-9,17.14,17.14,0,0,1,0-13.27,16.85,16.85,0,0,1,9-9,16.6,16.6,0,0,1,6.63-1.33h26.62a16.61,16.61,0,0,1,6.63,1.33,16.85,16.85,0,0,1,9,9A16.63,16.63,0,0,1,262.53,36V53a10.34,10.34,0,0,1-10.34-10.34V36a6.62,6.62,0,0,0-6.63-6.63H218.94a6.64,6.64,0,0,0-4.7,11.33,6.39,6.39,0,0,0,4.7,1.94Z"/><path class="cls-2" d="M279.08,53H268.75V8.63A10.34,10.34,0,0,1,279.08,19Z"/><circle class="cls-3" cx="39.14" cy="39.14" r="31.33" transform="translate(-1.78 76.41) rotate(-87.33)"/><path class="cls-2" d="M73.73,51.6c-9.83-4.67-21.47-5.06-32.1-3.81A85.7,85.7,0,0,0,17,54.56,119.31,119.31,0,0,1,47,33.29c8.4-4.25,17.28-7.56,25.69-11.78.6-.3-.89-3-2.11-2.72-.67.16-1.31.37-1.87.53-3,.86-5.89,1.78-8.86,2.59a68.54,68.54,0,0,1-25,2.4c-7.29-.73-16.38-3-22-6.52-1.49-.94-3.64-.47-5.18.15C7.1,18.15,4,19.83,5.4,20.72,12.06,24.9,20.36,27,28.07,28a78.49,78.49,0,0,0,22.78-.54c-3.38,1.53-6.75,3.09-10,4.8A125,125,0,0,0,5.26,59.38c-1.07,1.18,2.18,4.95,3.63,4C25,52.4,48.83,46.3,67.34,55.1,69.35,56.05,76.63,53,73.73,51.6Z"/><path class="cls-2" d="M39.16,78.28q-.92,0-1.84,0A39.14,39.14,0,1,1,41,0,39.14,39.14,0,0,1,78.24,41h0A39.19,39.19,0,0,1,39.16,78.28Zm0-74a34.88,34.88,0,1,0,1.64,0Q39.94,4.26,39.12,4.26Z"/><circle class="cls-4" cx="7.91" cy="18.58" r="3.82" transform="translate(-11.02 25.62) rotate(-87.33)"/><circle class="cls-3" cx="8.38" cy="59.88" r="4.17" transform="translate(-51.83 65.46) rotate(-87.33)"/><path class="cls-2" d="M8.38,64.81H8.15a4.93,4.93,0,1,1,5.15-4.69h0A4.94,4.94,0,0,1,8.38,64.81Zm0-8.34a3.43,3.43,0,1,0,.16,0Z"/><circle class="cls-3" cx="7.91" cy="18.58" r="4.17" transform="translate(-11.02 25.62) rotate(-87.33)"/><path class="cls-2" d="M7.92,23.51H7.68a4.93,4.93,0,1,1,5.15-4.69h0A4.93,4.93,0,0,1,7.92,23.51Zm0-8.34a3.41,3.41,0,1,0,3.41,3.57h0a3.41,3.41,0,0,0-3.25-3.57Z"/><circle class="cls-3" cx="72.33" cy="54.59" r="4.17" transform="translate(14.43 124.3) rotate(-87.33)"/><path class="cls-2" d="M72.34,59.52H72.1a4.93,4.93,0,1,1,5.15-4.69h0a4.93,4.93,0,0,1-4.92,4.7Zm0-8.34A3.41,3.41,0,0,0,72.17,58a3.41,3.41,0,0,0,3.57-3.25h0a3.42,3.42,0,0,0-3.25-3.57Z"/></g></g></svg>