<svg xmlns="http://www.w3.org/2000/svg" viewBox="0 0 168.2 168.2"><defs><style>.cls-1,.cls-4{fill:#c20e1a;}.cls-2{fill:#fff;}.cls-3{fill:#222221;}.cls-4{stroke:#fff;stroke-miterlimit:10;stroke-width:2px;}</style></defs><title>2018-09-18-saida-marca-simbolo-zaal</title><g id="Layer_2" data-name="Layer 2"><g id="Camada_1" data-name="Camada 1"><circle class="cls-1" cx="84.1" cy="84.1" r="67.33" transform="translate(-3.83 164.19) rotate(-87.33)"/><path class="cls-2" d="M158.42,110.87c-21.13-10-46.12-10.87-69-8.19a184.15,184.15,0,0,0-52.86,14.55,256.36,256.36,0,0,1,64.29-45.7c18.06-9.14,37.13-16.24,55.2-25.3,1.29-.65-1.92-6.47-4.54-5.85-1.43.34-2.82.79-4,1.14-6.35,1.84-12.65,3.83-19,5.57-17.51,4.79-35.5,7-53.62,5.16-15.66-1.56-35.2-6.38-47.38-14-3.2-2-7.83-1-11.13.33-1.11.45-7.83,4-4.77,6C25.92,53.5,43.74,58,60.31,60.06a168.66,168.66,0,0,0,48.94-1.15c-7.27,3.28-14.5,6.64-21.58,10.32C59,84.13,32.89,103.57,11.29,127.6,9,130.15,16,138.23,19.1,136.11c34.72-23.52,85.82-36.62,125.58-17.73C149,120.45,164.67,113.83,158.42,110.87Z"/><path class="cls-3" d="M84.14,168.2q-2,0-4-.09A84.1,84.1,0,1,1,88,.1,84.09,84.09,0,0,1,168.1,88h0A84.2,84.2,0,0,1,84.14,168.2Zm-.09-159a74.95,74.95,0,1,0,3.53.08Q85.82,9.16,84.06,9.16Z"/><circle class="cls-4" cx="17" cy="39.93" r="8.2" transform="translate(-23.68 55.06) rotate(-87.33)"/><circle class="cls-1" cx="18" cy="128.67" r="8.96" transform="translate(-111.37 140.65) rotate(-87.33)"/><path class="cls-2" d="M18,139.26h-.5a10.59,10.59,0,1,1,11.07-10.08h0A10.6,10.6,0,0,1,18,139.26Zm0-17.92a7.37,7.37,0,1,0,.35,0Z"/><circle class="cls-1" cx="17" cy="39.93" r="8.96" transform="translate(-23.68 55.06) rotate(-87.33)"/><path class="cls-2" d="M17,50.52h-.5A10.59,10.59,0,1,1,27.58,40.42h0A10.6,10.6,0,0,1,17,50.52ZM17,32.6a7.33,7.33,0,1,0,7.33,7.67h0a7.33,7.33,0,0,0-7-7.66Z"/><circle class="cls-1" cx="155.42" cy="117.3" r="8.96" transform="translate(31 267.09) rotate(-87.33)"/><path class="cls-2" d="M155.43,127.89h-.51A10.59,10.59,0,1,1,166,117.8h0a10.59,10.59,0,0,1-10.56,10.1Zm0-17.92a7.33,7.33,0,0,0-.34,14.65,7.33,7.33,0,0,0,7.66-7h0a7.34,7.34,0,0,0-7-7.67Z"/></g></g></svg>