<svg xmlns="http://www.w3.org/2000/svg" viewBox="0 0 278.04 78.1"><defs><style>.cls-1{fill:#9c9b9b;}.cls-2{fill:#222221;}.cls-3,.cls-5{fill:#c20e1a;}.cls-4{fill:#fff;}.cls-5{stroke:#fff;stroke-miterlimit:10;stroke-width:2px;}</style></defs><title>2018-09-18-saida-marca-horizontal_preta-zaal</title><g id="Layer_2" data-name="Layer 2"><g id="Camada_1" data-name="Camada 1"><path class="cls-1" d="M133.39,60.49H131a.27.27,0,0,1-.27-.27v-.41a.27.27,0,0,1,.27-.27h5.92a.27.27,0,0,1,.26.27v.41a.27.27,0,0,1-.26.27h-2.43v8.58a.28.28,0,0,1-.27.27h-.53a.28.28,0,0,1-.27-.27Z"/><path class="cls-1" d="M140.07,59.82a.27.27,0,0,1,.27-.27h5.5a.27.27,0,0,1,.26.27v.41a.26.26,0,0,1-.26.26h-4.69V63.9h4a.27.27,0,0,1,.27.26v.41a.27.27,0,0,1-.27.27h-4V68.4h4.69a.27.27,0,0,1,.26.27v.41a.27.27,0,0,1-.26.27h-5.5a.27.27,0,0,1-.27-.27Z"/><path class="cls-1" d="M154,59.42a4.91,4.91,0,0,1,3.38,1.3.27.27,0,0,1,0,.39l-.38.38c-.11.14-.22.13-.36,0a4.23,4.23,0,0,0-2.67-1,4,4,0,0,0,0,8,4.06,4.06,0,0,0,2.67-1,.26.26,0,0,1,.33,0l.42.38a.27.27,0,0,1,0,.38A4.79,4.79,0,0,1,154,69.48a5,5,0,1,1,0-10.06"/><path class="cls-1" d="M161,59.67a.26.26,0,0,1,.27-.25h.35l6.3,7.85h0V59.82a.27.27,0,0,1,.27-.27h.49a.27.27,0,0,1,.27.27v9.4a.26.26,0,0,1-.27.25h-.25l-6.41-8h0v7.6a.27.27,0,0,1-.26.27h-.49a.28.28,0,0,1-.27-.27Z"/><path class="cls-1" d="M177.46,59.42a5,5,0,1,1-5,5,5,5,0,0,1,5-5m0,9.08a4.05,4.05,0,1,0-4-4,4.06,4.06,0,0,0,4,4"/><path class="cls-1" d="M186,59.82a.27.27,0,0,1,.27-.27h.54a.28.28,0,0,1,.27.27V68.4h4a.27.27,0,0,1,.26.27v.41a.26.26,0,0,1-.26.27h-4.83a.27.27,0,0,1-.27-.27Z"/><path class="cls-1" d="M198.43,59.42a5,5,0,1,1-5,5,5,5,0,0,1,5-5m0,9.08a4.05,4.05,0,1,0-4-4,4.06,4.06,0,0,0,4,4"/><path class="cls-1" d="M211.32,59.42a4.91,4.91,0,0,1,3.38,1.3.27.27,0,0,1,0,.39c-.12.13-.28.27-.39.39s-.21.13-.36,0a4.24,4.24,0,0,0-2.65-1.09,4,4,0,0,0,0,8,5.24,5.24,0,0,0,2.51-.59v-2h-1.6a.25.25,0,0,1-.27-.25v-.52a.26.26,0,0,1,.27-.26h2.42a.26.26,0,0,1,.25.26v3.2a.35.35,0,0,1-.11.22,6.89,6.89,0,0,1-3.45.92,5,5,0,1,1,0-10.06"/><rect class="cls-1" x="218.6" y="59.56" width="1.09" height="9.78" rx="0.27" ry="0.27"/><path class="cls-1" d="M222.59,69l4.24-9.4a.25.25,0,0,1,.24-.15h.14a.25.25,0,0,1,.24.15l4.22,9.4a.25.25,0,0,1-.24.36h-.56a.26.26,0,0,1-.24-.15l-1-2.31h-5l-1,2.31a.26.26,0,0,1-.24.15h-.56a.25.25,0,0,1-.24-.36m6.63-3c-.68-1.52-1.35-3.06-2-4.58h-.11L225,66Z"/><path class="cls-2" d="M111.6,28.54H84.46A9.56,9.56,0,0,1,94,19h38.26a3.16,3.16,0,0,1,2.11.69,3.81,3.81,0,0,1,1.16,1.68,3.37,3.37,0,0,1,0,2.07,3.1,3.1,0,0,1-1.33,1.77L121.2,34.27l-13.05,9.09h26.11v0a9.35,9.35,0,0,1-9.35,9.35H87.73a3.2,3.2,0,0,1-2.07-.69,3.38,3.38,0,0,1-1.16-1.68,3.66,3.66,0,0,1,0-2.07,3.11,3.11,0,0,1,1.34-1.77Z"/><path class="cls-2" d="M181.27,42.41a10.34,10.34,0,0,1-10.34,10.34H154.22a16.56,16.56,0,0,1-6.63-1.34,16.85,16.85,0,0,1-9-9,17.14,17.14,0,0,1,0-13.27,16.85,16.85,0,0,1,9-9,16.6,16.6,0,0,1,6.63-1.33h26.62a16.6,16.6,0,0,1,6.63,1.33,16.85,16.85,0,0,1,9,9,16.61,16.61,0,0,1,1.34,6.63v17a10.34,10.34,0,0,1-10.34-10.34V35.78a6.62,6.62,0,0,0-6.63-6.63H154.22a6.64,6.64,0,0,0-4.7,11.33,6.39,6.39,0,0,0,4.7,1.94Z"/><path class="cls-2" d="M244.95,42.41a10.34,10.34,0,0,1-10.34,10.34H217.89a16.56,16.56,0,0,1-6.63-1.34,16.85,16.85,0,0,1-9-9,17.14,17.14,0,0,1,0-13.27,16.85,16.85,0,0,1,9-9,16.6,16.6,0,0,1,6.63-1.33h26.62a16.61,16.61,0,0,1,6.63,1.33,16.85,16.85,0,0,1,9,9,16.63,16.63,0,0,1,1.34,6.63v17a10.34,10.34,0,0,1-10.34-10.34V35.78a6.62,6.62,0,0,0-6.63-6.63H217.89a6.64,6.64,0,0,0-4.7,11.33,6.39,6.39,0,0,0,4.7,1.94Z"/><path class="cls-2" d="M278,52.75H267.7V8.38A10.34,10.34,0,0,1,278,18.71Z"/><circle class="cls-3" cx="39.05" cy="39.05" r="31.26" transform="translate(-1.78 76.24) rotate(-87.33)"/><path class="cls-4" d="M73.56,51.48c-9.81-4.66-21.42-5-32-3.8A85.5,85.5,0,0,0,17,54.43,119,119,0,0,1,46.84,33.21C55.23,29,64.08,25.67,72.48,21.46c.6-.3-.89-3-2.11-2.72-.66.16-1.31.37-1.87.53-2.95.86-5.87,1.78-8.83,2.59a68.38,68.38,0,0,1-24.9,2.4c-7.27-.72-16.34-3-22-6.51-1.49-.93-3.64-.47-5.17.15-.52.21-3.64,1.88-2.22,2.77C12,24.84,20.31,26.92,28,27.89a78.31,78.31,0,0,0,22.73-.54c-3.37,1.52-6.73,3.08-10,4.79A124.7,124.7,0,0,0,5.24,59.25c-1.06,1.18,2.18,4.94,3.63,4C25,52.28,48.72,46.2,67.18,55,69.19,55.92,76.46,52.85,73.56,51.48Z"/><path class="cls-2" d="M39.07,78.1q-.92,0-1.84,0A39,39,0,1,1,40.87,0,39,39,0,0,1,78.05,40.87h0A39.1,39.1,0,0,1,39.07,78.1ZM39,4.25a34.8,34.8,0,1,0,1.64,0Q39.85,4.25,39,4.25Z"/><circle class="cls-5" cx="7.9" cy="18.54" r="3.81" transform="translate(-10.99 25.56) rotate(-87.33)"/><circle class="cls-3" cx="8.36" cy="59.74" r="4.16" transform="translate(-51.71 65.31) rotate(-87.33)"/><path class="cls-4" d="M8.36,64.66H8.13A4.92,4.92,0,1,1,13.27,60h0A4.92,4.92,0,0,1,8.36,64.66Zm0-8.32a3.42,3.42,0,1,0,.16,0Z"/><circle class="cls-3" cx="7.9" cy="18.54" r="4.16" transform="matrix(0.05, -1, 1, 0.05, -10.99, 25.56)"/><path class="cls-4" d="M7.9,23.46H7.67a4.92,4.92,0,1,1,5.14-4.68h0A4.92,4.92,0,0,1,7.9,23.46Zm0-8.32a3.4,3.4,0,1,0,3.4,3.56h0a3.4,3.4,0,0,0-3.24-3.56Z"/><circle class="cls-3" cx="72.16" cy="54.47" r="4.16" transform="translate(14.4 124.01) rotate(-87.33)"/><path class="cls-4" d="M72.17,59.38h-.24a4.92,4.92,0,1,1,5.14-4.68h0a4.92,4.92,0,0,1-4.91,4.69Zm0-8.32a3.4,3.4,0,0,0-.16,6.8,3.4,3.4,0,0,0,3.56-3.24h0a3.41,3.41,0,0,0-3.24-3.56Z"/></g></g></svg>